<?xml version="1.0" encoding="utf-8"?>
<!-- Generator: Adobe Illustrator 26.1.0, SVG Export Plug-In . SVG Version: 6.00 Build 0)  -->
<svg version="1.0" xmlns="http://www.w3.org/2000/svg" xmlns:xlink="http://www.w3.org/1999/xlink" x="0px" y="0px"
	 viewBox="0 0 820 1024" style="enable-background:new 0 0 820 1024;" xml:space="preserve">
<style type="text/css">
	.st0{fill:none;stroke:#FFFFFF;stroke-width:7.5359;stroke-linecap:round;stroke-linejoin:round;stroke-miterlimit:10;}
	.st1{fill:none;stroke:#FFFFFF;stroke-width:2.512;stroke-linecap:round;stroke-linejoin:round;stroke-miterlimit:10;}
	.st2{fill:none;stroke:#FFFFFF;stroke-width:3.768;stroke-linecap:round;stroke-linejoin:round;stroke-miterlimit:10;}
	.st3{fill:none;stroke:#FFFFFF;stroke-width:5.024;stroke-linecap:round;stroke-linejoin:round;stroke-miterlimit:10;}
</style>
<g id="Camada_1">
</g>
<g id="Camada_2">
	<g>
		<path class="st0" d="M55,979.8V854.2h6.6v-85.5h7.7v-50.4l-3.9-2.7l5.8-3.9l1.9-42.5l-3.9-1.9l3.9-2.4v-34.8l-1.9-3.4l1.9-2.1
			l1.9-32.8h-3.9H75l5.8-55l3.9,55h3.9h-3.9l1.9,33l1.9,2.9l-1.9,1l1.9,36.5l3.9,2.1l-3.9,1.9l1.9,42.5l5.8,3.9l-3.9,1.9l1.9,52.2
			h9.7V852h5.8v121.1h5.8v-64.4l94.7-84.9l1.9-5.8l-3.9-1.9l3.9-2.5l1.9-22.6l-3.9-1.9l3.9-1.7l3.9-75.6l5.8,75.4l3.9,1.9l-3.9,1.9
			l1.9,19.3l135.3-129.5V630l11.6-5.2V468.2l7.7-5.5V359.5l11.6-7.2l1.9-58l-5.8-5.8l7.7-5.8l1.9-54.1l-5.8-3.9l5.8-3.9l3.9-44.5
			l-3.9-4.9l3.9-4.9L410.4,41l8.7,125.5l4.5,4.9l-4.5,4.9l1.9,44.5l5.8,3.9l-5.8,3.9l3.9,54.1l7.7,5.8l-7.7,5.8l3.9,58l11.6,7.2
			v103.2l5.8,5.5v158.9l11.6,2.8v53L593,808.4v-20l1.9-1.3v-20.1l-3.2-3.1l3.2-2.3l3.9-49.8l3.9,50.3l2.6,1.9l-2.6,1.9l1.9,21.3
			l1.9,2.4v24.9l1.9,1.7l-1.9,1.9v5.8l96.6,88.9v61.9h7.7V852.9h3.9v-82.8l9.7-4.2l1.9-46.4l-3.9-3.9l3.9-3.9l1.9-44.4l-3.9-1.9
			l5.8-3.9l1.9-30.9l-3.9-3.9l5.8-1.9v-33c0,0-5.8,0-3.9,0s5.8,0,5.8,0l3.9-55l3.9,55h3.9h-1.9v31l3.9,5.8l-3.9,1.9l1.9,32.9
			l3.9,3.9l-3.9,1.9l1.9,42.5l5.8,3.9l-3.9,3.9l1.9,46.4l7.7,5.8V851h3.9v132"/>
		<line class="st0" x1="78.9" y1="773.6" x2="78.9" y2="968.8"/>
		<line class="st1" x1="231.6" y1="822" x2="231.6" y2="968.8"/>
		<line class="st1" x1="250.9" y1="802.6" x2="250.9" y2="968.8"/>
		<line class="st2" x1="270.2" y1="785.2" x2="270.2" y2="968.8"/>
		<line class="st3" x1="295.3" y1="765.9" x2="295.3" y2="968.8"/>
		<line class="st3" x1="320.5" y1="742.7" x2="320.5" y2="968.8"/>
		<line class="st0" x1="361.1" y1="709.9" x2="361.1" y2="968.8"/>
		<line class="st0" x1="410" y1="353.1" x2="410" y2="966.2"/>
		<line class="st0" x1="740.7" y1="774.5" x2="740.7" y2="969.7"/>
		<line class="st1" x1="588" y1="822.9" x2="588" y2="969.7"/>
		<line class="st2" x1="568.7" y1="803.5" x2="568.7" y2="969.7"/>
		<line class="st2" x1="549.3" y1="786.1" x2="549.3" y2="969.7"/>
		<line class="st3" x1="524.2" y1="766.8" x2="524.2" y2="969.7"/>
		<line class="st3" x1="499.1" y1="743.6" x2="499.1" y2="969.7"/>
		<line class="st0" x1="458.5" y1="710.8" x2="458.5" y2="969.7"/>
	</g>
</g>
</svg>
