<?xml version="1.0" encoding="utf-8"?>
<!-- Generator: Adobe Illustrator 26.1.0, SVG Export Plug-In . SVG Version: 6.00 Build 0)  -->
<svg version="1.1" id="Capa_1" xmlns="http://www.w3.org/2000/svg" xmlns:xlink="http://www.w3.org/1999/xlink" x="0px" y="0px"
	 viewBox="0 0 455.7 455.7" style="enable-background:new 0 0 455.7 455.7;" xml:space="preserve">
<style type="text/css">
	.st0{fill:#FFFFFF;}
</style>
<path class="st0" d="M0,0v455.7h455.7V0H0z M384.8,289c-35.7,91.1-131.4,123.3-203.2,100.6c5.4-13.3,11.5-26.3,15.9-39.9
	c4.5-13.7,7.4-27.9,10.7-41c2.9,2.4,5.8,5,8.9,7.4c15.9,12.5,33.8,13.8,52.6,9.2c20-4.8,35.8-16.1,47.5-32.8
	c19.8-28.2,26.8-60,22-93.5c-4.9-34.7-25.5-59.8-57.6-72.4c-48.5-19-94.5-12.6-134.3,22.3c-30.6,26.8-40.9,72.3-26.2,107.7
	c5.1,12.3,13.2,21.9,25.4,27.7c6.2,2.9,8.8,1.7,10.6-4.7c0.1-0.5,0.3-1,0.5-1.4c3.4-9,2.6-16.5-3.5-25.2c-11.1-15.9-9.1-34.3-3.8-52
	c10.2-33.5,40.1-55.8,75.1-56.1c9.4-0.1,19.1,0.7,28.1,2.9c27,6.6,44.5,27.5,46.3,55.3c1.4,22.2-2.1,43.8-11.7,64.2
	c-4.8,10.1-11.1,19-20.5,25.3c-8.8,5.9-18.5,8.3-29,5.6c-14.4-3.8-22.6-17-19-31.4c3.8-15,8.7-29.7,12.4-44.7
	c1.6-6.3,2.4-13.2,1.8-19.7c-1.8-17.6-18.4-25.8-33.9-17.2c-10.9,6-16.1,16.1-18.6,27.7c-2.5,12-1.3,23.8,2.6,35.4
	c0.8,2.3,0.9,5.2,0.3,7.6c-7.1,30.8-14.6,61.5-21.3,92.4c-2,9-1.6,18.5-2.2,27.8c-0.1,1.8,0,3.6,0,5.9
	c-74.4-31.1-122.8-119.7-92-209.6c30.5-89,129-135.6,217.7-102.6C375.3,102.8,419.3,200.9,384.8,289z"/>
</svg>
